# xmcd
#
# Track frame offsets:
#	150
#	14353
#	26766
#	39666
#	50094
#	64499
#	79971
#	93178
#	105932
#	119435
#
# Disc length: 1732 seconds
#
# Revision: 0
# Processed by: cddbd v1.5.1PL0 Copyright (c) Steve Scherf et al.
# Submitted via: dBpowerAMP V4.0
#
DISCID=8206c20a
DTITLE=Merle Haggard and The Strangers - Honky Tonkin'
DYEAR=1971
DGENRE=Country
TTITLE0=Honky Tonk
TTITLE1=Song From Sleepwalk
TTITLE2=Just Sit Down And Cry
TTITLE3=I Don't Love Nobody
TTITLE4=Me And Bobby McGee
TTITLE5=Stumbling
TTITLE6=Raunchy
TTITLE7=Watchin' Scotty Grow
TTITLE8=Slow 'N Easy
TTITLE9=Almost To Tulsa
EXTD=Submitted faithfully by +Sound Man+\nPlease visit my Merle Haggard Discography site at:\nhttp://www.angelfire.com/stars4/anxietyfriend/merlehaggard.htm
EXTT0=
EXTT1=
EXTT2=
EXTT3=
EXTT4=
EXTT5=
EXTT6=
EXTT7=
EXTT8=
EXTT9=
PLAYORDER=
